<!DOCTYPE svg PUBLIC "-//W3C//DTD SVG 1.1//EN" "http://www.w3.org/Graphics/SVG/1.1/DTD/svg11.dtd">
<!-- Uploaded to: SVG Repo, www.svgrepo.com, Transformed by: SVG Repo Mixer Tools -->
<svg fill="#000000" version="1.1" id="Capa_1" xmlns="http://www.w3.org/2000/svg" xmlns:xlink="http://www.w3.org/1999/xlink" width="800px" height="800px" viewBox="-4.57 -4.57 54.84 54.84" xml:space="preserve">
<g id="SVGRepo_bgCarrier" stroke-width="0" transform="translate(1.371030000000001,1.371030000000001), scale(0.94)">
<rect x="-4.57" y="-4.57" width="54.84" height="54.84" rx="27.42" fill="#7ed0ec" strokewidth="0"/>
</g>
<g id="SVGRepo_tracerCarrier" stroke-linecap="round" stroke-linejoin="round"/>
<g id="SVGRepo_iconCarrier"> <g> <g> <path d="M20.687,38.332c-2.072,2.072-5.434,2.072-7.505,0L1.554,26.704c-2.072-2.071-2.072-5.433,0-7.504 c2.071-2.072,5.433-2.072,7.505,0l6.928,6.927c0.523,0.522,1.372,0.522,1.896,0L36.642,7.368c2.071-2.072,5.433-2.072,7.505,0 c0.995,0.995,1.554,2.345,1.554,3.752c0,1.407-0.559,2.757-1.554,3.752L20.687,38.332z"/> </g> </g> </g>
</svg>